#N canvas 0 0 1808 932 10;
#X obj 0 1 cnv 15 857 517 empty empty empty 20 12 0 14 #000000 #404040
0;
#N canvas 830 158 784 546 Botones 0;
#X obj 250 312 cnv 15 80 35 empty empty empty 20 12 0 14 #e0e0e0 #404040
0;
#X obj 39 278 cnv 15 305 151 empty empty empty 20 12 0 14 #e0e0e0 #404040
0;
#X obj 310 180 r~ volumen_1;
#X obj 410 180 r~ volumen_2;
#X obj 330 130 writesf~;
#X obj 46 383 bng 21 250 50 0 start_rec empty empty 17 7 0 10 #808080
#ff0000 #000000;
#X obj 46 406 bng 21 250 50 0 stop_rec empty empty 17 7 0 10 #808080
#ff0000 #000000;
#X text 74 387 Inciar Grabar;
#X text 74 409 Parar Grabar;
#X msg 350 90 start;
#X msg 330 60 open record.wav;
#X obj 180 10 r start_rec;
#X msg 420 110 print;
#X obj 160 90 r stop_rec;
#X msg 166 130 stop, f 5;
#N canvas 0 0 1824 973 Encendido 0;
#X obj 409 153 cnv 15 199 100 empty empty empty 20 12 0 14 #808080
#404040 0;
#X obj 151 82 inlet~;
#X obj 171 239 *~;
#X obj 203 82 inlet~;
#X obj 223 238 *~;
#X obj 151 124 hip~ 3;
#X obj 203 123 hip~ 3;
#X obj 40 247 block~ 64;
#X obj 257 80 inlet;
#X obj 296 314 outlet;
#X obj 223 315 outlet~;
#X obj 171 314 outlet~;
#X obj 296 282 r \$0-slider;
#N canvas 627 117 614 293 set_GUI 0;
#X obj 66 243 s \$0-set-slider;
#X obj 98 18 inlet;
#X obj 66 209 clip 0 1;
#X obj 129 209 s \$0-dsp-toggle-set;
#X msg 160 182 0;
#X msg 129 179 1;
#X obj 223 159 s \$0-dac;
#X obj 254 137 s \$0-mode;
#X obj 318 165 s \$0-max_gain;
#X obj 318 119 moses 0;
#X obj 318 97 * -1;
#X obj 318 141 * -1;
#X obj 98 52 route float on off mute dac mode gain ramp;
#X obj 376 105 s \$0-ramp;
#X obj 376 84 max 5;
#X obj 191 182 s \$0-mute;
#X connect 1 0 12 0;
#X connect 2 0 0 0;
#X connect 4 0 3 0;
#X connect 5 0 3 0;
#X connect 9 0 11 0;
#X connect 10 0 9 0;
#X connect 11 0 8 0;
#X connect 12 0 2 0;
#X connect 12 1 5 0;
#X connect 12 2 4 0;
#X connect 12 3 15 0;
#X connect 12 4 6 0;
#X connect 12 5 7 0;
#X connect 12 6 10 0;
#X connect 12 7 14 0;
#X connect 14 0 13 0;
#X restore 257 123 pd set_GUI;
#X obj 203 192 *~;
#X obj 151 194 *~;
#N canvas 599 50 439 352 dac 0;
#X obj 94 320 dac~;
#X obj 53 22 inlet~;
#X obj 115 21 inlet~;
#X obj 153 69 r \$0-dac;
#X obj 115 275 *~;
#X obj 54 208 *~;
#X obj 153 181 line~;
#X obj 153 211 *~;
#X obj 153 242 *~;
#X msg 153 160 \$1 50;
#X obj 203 120 sel 0 1;
#X msg 222 143 1;
#X obj 307 239 switch~;
#X msg 203 215 0;
#X obj 203 186 delay 50;
#X obj 307 209 change;
#X connect 1 0 5 0;
#X connect 2 0 4 0;
#X connect 3 0 9 0;
#X connect 3 0 10 0;
#X connect 4 0 0 1;
#X connect 5 0 0 0;
#X connect 6 0 7 0;
#X connect 6 0 7 1;
#X connect 7 0 8 0;
#X connect 7 0 8 1;
#X connect 8 0 4 1;
#X connect 8 0 5 1;
#X connect 9 0 6 0;
#X connect 10 0 14 0;
#X connect 10 1 11 0;
#X connect 11 0 15 0;
#X connect 13 0 15 0;
#X connect 14 0 13 0;
#X connect 15 0 12 0;
#X restore 236 284 pd dac;
#N canvas 329 100 340 226 gain 0;
#N canvas 251 205 450 331 quartic 0;
#X obj 100 126 line~;
#X obj 100 158 *~;
#X obj 100 186 *~;
#X obj 100 92 inlet;
#X obj 100 252 outlet~;
#X obj 100 217 *~;
#X obj 221 54 r \$0-mode;
#X msg 250 104 0;
#X obj 269 157 switch~;
#X msg 221 104 1;
#X obj 197 179 line~;
#X msg 197 157 \$1 50;
#X obj 273 132 pipe 50;
#X obj 221 79 sel 0;
#X connect 0 0 1 0;
#X connect 0 0 1 1;
#X connect 1 0 2 0;
#X connect 1 0 2 1;
#X connect 2 0 5 0;
#X connect 3 0 0 0;
#X connect 5 0 4 0;
#X connect 6 0 13 0;
#X connect 7 0 11 0;
#X connect 7 0 12 0;
#X connect 9 0 8 0;
#X connect 9 0 11 0;
#X connect 10 0 5 1;
#X connect 11 0 10 0;
#X connect 12 0 8 0;
#X connect 13 0 9 0;
#X connect 13 1 7 0;
#X restore 37 85 pd quartic;
#X obj 116 172 outlet~;
#N canvas 251 205 450 300 dB 0;
#X obj 69 130 line~;
#X obj 69 26 inlet;
#X obj 99 255 outlet~;
#X obj 69 160 *~ 100;
#X obj 69 188 dbtorms~;
#X obj 166 56 r \$0-mode;
#X msg 193 106 0;
#X obj 193 175 switch~;
#X msg 164 106 1;
#X obj 166 81 sel 1;
#X obj 137 187 line~;
#X obj 99 223 *~;
#X msg 137 165 \$1 50;
#X obj 193 140 pipe 50;
#X connect 0 0 3 0;
#X connect 1 0 0 0;
#X connect 3 0 4 0;
#X connect 4 0 11 0;
#X connect 5 0 9 0;
#X connect 6 0 12 0;
#X connect 6 0 13 0;
#X connect 8 0 7 0;
#X connect 8 0 12 0;
#X connect 9 0 8 0;
#X connect 9 1 6 0;
#X connect 10 0 11 1;
#X connect 11 0 2 0;
#X connect 12 0 10 0;
#X connect 13 0 7 0;
#X restore 116 85 pd dB;
#N canvas 251 205 450 300 linear 0;
#X obj 136 65 line~;
#X obj 136 31 inlet;
#X obj 139 241 outlet~;
#X obj 260 54 r \$0-mode;
#X msg 289 104 0;
#X obj 308 157 switch~;
#X msg 260 104 1;
#X obj 236 179 line~;
#X msg 236 157 \$1 50;
#X obj 312 132 pipe 50;
#X obj 260 79 sel 2;
#X obj 131 187 *~;
#X connect 0 0 11 0;
#X connect 1 0 0 0;
#X connect 3 0 10 0;
#X connect 4 0 8 0;
#X connect 4 0 9 0;
#X connect 6 0 5 0;
#X connect 6 0 8 0;
#X connect 7 0 11 1;
#X connect 8 0 7 0;
#X connect 9 0 5 0;
#X connect 10 0 6 0;
#X connect 10 1 4 0;
#X connect 11 0 2 0;
#X restore 172 85 pd linear;
#N canvas 661 142 329 221 max_gain 0;
#X obj 46 35 inlet~;
#X obj 46 171 outlet~;
#X obj 46 100 *~;
#X obj 105 91 expr if($f1 <= 0 \, 1 \, $f1);
#X obj 105 65 r \$0-max_gain;
#X obj 105 141 line~;
#X msg 105 116 \$1 50;
#X obj 159 118 loadbang;
#X msg 159 142 1;
#X connect 0 0 2 0;
#X connect 2 0 1 0;
#X connect 3 0 6 0;
#X connect 4 0 3 0;
#X connect 5 0 2 1;
#X connect 6 0 5 0;
#X connect 7 0 8 0;
#X connect 8 0 5 0;
#X restore 116 136 pd max_gain;
#X obj 116 35 inlet;
#X connect 0 0 4 0;
#X connect 2 0 4 0;
#X connect 3 0 4 0;
#X connect 4 0 1 0;
#X connect 5 0 2 0;
#X connect 5 0 3 0;
#X connect 5 0 0 0;
#X restore 278 189 pd gain;
#N canvas 393 0 398 528 mute 0;
#X obj 121 167 line~;
#X obj 121 196 *~;
#X obj 121 221 *~;
#X obj 121 114 expr 1 - $f1;
#X msg 121 140 \$1 50;
#X msg 206 140 1;
#X obj 121 245 outlet~;
#X obj 284 88 select 0 1;
#X msg 284 37 0;
#X obj 205 8 loadbang;
#N canvas 364 23 358 434 off 0;
#X obj 154 221 +;
#X obj 139 246 +;
#X obj 77 140 * -65536;
#X obj 154 141 * -256;
#X obj 220 141 * -1;
#X obj 139 277 - 1;
#X obj 120 110 unpack f f f;
#X obj 120 47 inlet;
#X obj 139 351 outlet;
#X msg 120 80 220 220 220;
#X msg 139 309 label volumen \, color \$1 -1 -1;
#X connect 0 0 1 1;
#X connect 1 0 5 0;
#X connect 2 0 1 0;
#X connect 3 0 0 0;
#X connect 4 0 0 1;
#X connect 5 0 10 0;
#X connect 6 0 2 0;
#X connect 6 1 3 0;
#X connect 6 2 4 0;
#X connect 7 0 9 0;
#X connect 9 0 6 0;
#X connect 10 0 8 0;
#X restore 284 127 pd off;
#N canvas 375 129 311 350 on 0;
#X obj 112 157 +;
#X obj 97 182 +;
#X obj 35 122 * -65536;
#X obj 112 123 * -256;
#X obj 178 123 * -1;
#X obj 97 213 - 1;
#X obj 78 92 unpack f f f;
#X obj 78 32 inlet;
#X obj 97 284 outlet;
#X msg 78 62 89 96 100;
#X msg 97 246 label muteado \, color \$1 0 0;
#X connect 0 0 1 1;
#X connect 1 0 5 0;
#X connect 2 0 1 0;
#X connect 3 0 0 0;
#X connect 4 0 0 1;
#X connect 5 0 10 0;
#X connect 6 0 2 0;
#X connect 6 1 3 0;
#X connect 6 2 4 0;
#X connect 7 0 9 0;
#X connect 9 0 6 0;
#X connect 10 0 8 0;
#X restore 344 127 pd on;
#X obj 285 207 s \$0-set-slider;
#X obj 284 65 tgl 15 0 empty \$0-mute-bng empty 17 7 0 10 #fcfcfc #000000
#000000 0 1;
#X connect 0 0 1 0;
#X connect 0 0 1 1;
#X connect 1 0 2 0;
#X connect 1 0 2 1;
#X connect 2 0 6 0;
#X connect 3 0 4 0;
#X connect 4 0 0 0;
#X connect 5 0 0 0;
#X connect 7 0 10 0;
#X connect 7 1 11 0;
#X connect 8 0 13 0;
#X connect 9 0 8 0;
#X connect 9 0 5 0;
#X connect 10 0 12 0;
#X connect 11 0 12 0;
#X connect 13 0 7 0;
#X connect 13 0 3 0;
#X restore 218 156 pd mute;
#N canvas 333 66 407 447 Gui_control 0;
#X msg 242 154 0;
#X msg 29 303 \; pd dsp 1;
#X obj 56 97 value slider_\$0;
#X obj 57 189 value slider_\$0;
#X obj 270 220 value slider_\$0;
#X obj 242 126 select 0 1;
#N canvas 824 206 392 422 DSP_state 0;
#X obj 204 156 route dsp;
#X obj 204 129 receive pd;
#X obj 184 21 inlet;
#X obj 118 395 outlet;
#X obj 184 51 sel 0 1;
#X msg 203 85 \; pd dsp 1;
#X msg 185 221 0;
#X msg 67 179 set 0;
#X msg 40 214 \; pd dsp 0;
#X obj 40 153 t b b;
#X obj 70 395 outlet;
#X obj 201 296 value dsp_state_\$0;
#X obj 70 361 b;
#X msg 118 152 1;
#X obj 118 221 change -1;
#X obj 40 128 delay 150;
#X obj 278 112 loadbang;
#X obj 278 170 pdinfo;
#X msg 278 142 dsp-status;
#X msg 131 330 set \$1;
#N canvas 555 532 340 222 set_color 0;
#X obj 47 30 inlet;
#N canvas 0 50 712 637 off 0;
#X obj 389 164 * -1;
#X obj 323 244 +;
#X obj 308 269 +;
#X obj 246 163 * -65536;
#X obj 323 164 * -256;
#X obj 308 300 - 1;
#X obj 289 133 unpack f f f;
#X obj 124 239 +;
#X obj 109 264 +;
#X obj 47 158 * -65536;
#X obj 124 159 * -256;
#X obj 190 159 * -1;
#X obj 109 295 - 1;
#X obj 90 128 unpack f f f;
#X msg 289 97 124 124 124;
#X msg 90 98 220 220 220;
#X obj 90 25 inlet;
#X obj 287 405 outlet;
#X obj 287 344 pack;
#X obj 90 65 trigger bang bang;
#X msg 287 371 color \$1 \$2 2 \, label off;
#X connect 0 0 1 1;
#X connect 1 0 2 1;
#X connect 2 0 5 0;
#X connect 3 0 2 0;
#X connect 4 0 1 0;
#X connect 5 0 18 1;
#X connect 6 0 3 0;
#X connect 6 1 4 0;
#X connect 6 2 0 0;
#X connect 7 0 8 1;
#X connect 8 0 12 0;
#X connect 9 0 8 0;
#X connect 10 0 7 0;
#X connect 11 0 7 1;
#X connect 12 0 18 0;
#X connect 13 0 9 0;
#X connect 13 1 10 0;
#X connect 13 2 11 0;
#X connect 14 0 6 0;
#X connect 15 0 13 0;
#X connect 16 0 19 0;
#X connect 18 0 20 0;
#X connect 19 0 15 0;
#X connect 19 1 14 0;
#X connect 20 0 17 0;
#X restore 47 113 pd off;
#X obj 47 83 select 0 1;
#X obj 96 160 send \$0-dsp-toggle-set;
#X msg 96 114 color -4.86997e+06 -4.86997e+06 0 \, label on;
#X connect 0 0 2 0;
#X connect 1 0 3 0;
#X connect 2 0 1 0;
#X connect 2 1 4 0;
#X connect 4 0 3 0;
#X restore 185 330 pd set_color;
#X obj 131 361 send \$0-dsp-toggle-set;
#X connect 0 0 14 0;
#X connect 1 0 0 0;
#X connect 2 0 4 0;
#X connect 4 0 6 0;
#X connect 4 0 15 0;
#X connect 4 1 5 0;
#X connect 4 1 13 0;
#X connect 6 0 19 0;
#X connect 6 0 20 0;
#X connect 6 0 11 0;
#X connect 6 0 12 0;
#X connect 7 0 14 0;
#X connect 9 0 8 0;
#X connect 9 1 7 0;
#X connect 12 0 10 0;
#X connect 13 0 14 0;
#X connect 14 0 3 0;
#X connect 14 0 11 0;
#X connect 14 0 19 0;
#X connect 14 0 20 0;
#X connect 15 0 9 0;
#X connect 16 0 18 0;
#X connect 17 0 14 0;
#X connect 18 0 17 0;
#X connect 19 0 21 0;
#X restore 173 63 pd DSP_state;
#X obj 29 133 value dsp_state_\$0;
#X obj 29 72 t b f;
#X obj 29 162 select 0 1;
#X obj 29 38 receive \$0-slider;
#X obj 173 36 receive \$0-dsp-toggle;
#X msg 270 245 0 \, \$1 100;
#X obj 173 372 outlet;
#X msg 173 119 0 150;
#X obj 57 238 pack f 20;
#X obj 108 214 r \$0-ramp;
#X connect 0 0 13 0;
#X connect 3 0 15 0;
#X connect 4 0 12 0;
#X connect 5 0 0 0;
#X connect 5 1 4 0;
#X connect 6 0 14 0;
#X connect 6 1 5 0;
#X connect 7 0 9 0;
#X connect 8 0 7 0;
#X connect 8 1 2 0;
#X connect 9 0 1 0;
#X connect 9 1 3 0;
#X connect 10 0 8 0;
#X connect 11 0 6 0;
#X connect 12 0 13 0;
#X connect 14 0 13 0;
#X connect 15 0 13 0;
#X connect 16 0 15 1;
#X restore 278 156 pd Gui_control;
#X obj 413 159 tgl 25 0 \$0-dsp-toggle \$0-dsp-toggle-set on 4 10 1
15 #4a4f51 #4a4f51 #fcfcfc 1 1;
#X obj 414 223 bng 24 500 50 0 \$0-mute-bng \$0-mute empty 0 9 2 8
#484848 #ff0000 #000000;
#N canvas 350 88 347 377 load_args 0;
#X obj 75 88 list length;
#X obj 147 174 \$1;
#X obj 120 252 s \$0-mode;
#X obj 147 218 s \$0-dac;
#X obj 75 120 select 0;
#X obj 75 31 loadbang;
#X obj 75 61 list append \$@;
#X obj 120 174 \$2;
#X obj 120 144 t b b;
#X msg 75 174 1;
#X msg 42 175 0;
#X connect 0 0 4 0;
#X connect 1 0 3 0;
#X connect 4 0 9 0;
#X connect 4 0 10 0;
#X connect 4 1 8 0;
#X connect 5 0 6 0;
#X connect 6 0 0 0;
#X connect 7 0 2 0;
#X connect 8 0 7 0;
#X connect 8 1 1 0;
#X connect 9 0 3 0;
#X connect 10 0 2 0;
#X restore 292 236 pd load_args;
#X text 465 163 Encendido/Apagado;
#X text 464 225 Muteado/Desmuteado;
#X obj 414 194 hsl 182 20 0 1 0 0 \$0-slider \$0-set-slider volumen
19 7 1 13 #dcdcdc #000000 #000000 8200 1;
#X connect 1 0 5 0;
#X connect 2 0 11 0;
#X connect 2 0 16 0;
#X connect 3 0 6 0;
#X connect 4 0 10 0;
#X connect 4 0 16 1;
#X connect 5 0 15 0;
#X connect 6 0 14 0;
#X connect 8 0 13 0;
#X connect 12 0 9 0;
#X connect 14 0 4 0;
#X connect 15 0 2 0;
#X connect 17 0 4 1;
#X connect 17 0 2 1;
#X connect 18 0 14 1;
#X connect 18 0 15 1;
#X connect 19 0 17 0;
#X coords 0 -1 1 1 200 101 2 409 152;
#X restore 40 280 pd Encendido;
#X obj 510 180 r~ volumen_3;
#X obj 370 470 s~ save_master;
#X obj 590 30 r~ save_master;
#X obj 520 286 bng 15 250 50 0 empty read_rec empty 17 7 0 10 #fcfcfc
#000000 #000000;
#X obj 520 356 soundfiler;
#X obj 727 344 bng 15 250 50 0 empty play_rec empty 17 7 0 10 #fcfcfc
#000000 #000000;
#X obj 668 446 *~;
#X obj 734 451 r vol_play;
#X msg 787 411 1;
#X obj 192 406 bng 21 250 50 0 play_rec empty empty 17 7 0 10 #808080
#ff0000 #000000;
#X obj 192 383 bng 21 250 50 0 read_rec empty empty 17 7 0 10 #808080
#ff0000 #000000;
#X text 216 386 Cargar Grabacion;
#X text 215 409 Reproducir Grabacion;
#X obj 242 280 cnv 15 100 101 empty empty empty 20 12 0 14 #808080
#404040 0;
#N canvas 0 0 450 300 (subpatch) 0;
#X array Grabacion 179584 float 0 black black;
#X coords 0 1 179583 -1 100 101 1;
#X restore 242 280 graph;
#X msg 520 320 read -resize record.wav Grabacion;
#X obj 600 180 r~ volumen_4;
#X obj 350 250 r~ volumen_5;
#X obj 640 400 tabplay~ Grabacion;
#X obj 480 240 r~ volumen_add;
#X obj 130 200 r~ volumen_6;
#X connect 2 0 15 0;
#X connect 2 0 15 1;
#X connect 3 0 15 0;
#X connect 3 0 15 1;
#X connect 9 0 4 0;
#X connect 10 0 4 0;
#X connect 11 0 10 0;
#X connect 11 0 9 0;
#X connect 12 0 4 0;
#X connect 13 0 14 0;
#X connect 14 0 4 0;
#X connect 15 0 17 0;
#X connect 15 1 17 0;
#X connect 16 0 15 0;
#X connect 16 0 15 1;
#X connect 18 0 4 0;
#X connect 19 0 31 0;
#X connect 21 0 24 0;
#X connect 21 0 34 0;
#X connect 22 0 15 1;
#X connect 22 0 15 0;
#X connect 23 0 22 1;
#X connect 24 0 22 1;
#X connect 31 0 20 0;
#X connect 32 0 15 0;
#X connect 32 0 15 1;
#X connect 33 0 15 0;
#X connect 33 0 15 1;
#X connect 34 0 22 0;
#X connect 35 0 15 0;
#X connect 35 0 15 1;
#X connect 36 0 15 0;
#X connect 36 0 15 1;
#X coords 0 -1 1 1 306 152 2 38 277;
#X restore 9 12 pd Botones;
#X obj 318 13 cnv 15 261 151 empty empty empty 20 12 0 14 #e0e0e0 #404040
0;
#N canvas 709 217 784 521 modulo 0;
#X obj 459 89 cnv 15 100 110 empty empty empty 20 12 0 14 #575757 #404040
0;
#N canvas 0 0 450 300 (subpatch) 0;
#X array osc1 100 float 1 black #ff0000;
#A 0 0 0 0 0 0 0 0 0 0 0 0 0 0 0 0 0 0 0 0 0 0 0 0 0 0 0 0 0 0 0 0
0 0 0 0 0 0 0 0 0 0 0 0 0 0 0 0 0 0 0 0 0 0 0 0 0 0 0 0 0 0 0 0 0 0
0 0 0 0 0 0 0 0 0 0 0 0 0 0 0 0 0 0 0 0 0 0 0 0 0 0 0 0 0 0 0 0 0 0
0;
#X coords 0 1 99 -1 100 110 1;
#X restore 459 89 graph;
#X obj 459 57 cnv 15 98 22 empty empty Oscilador\ 1 3 9 0 14 #000000
#ffffff 0;
#X obj -20 390 tabwrite~ osc1;
#X obj 10 230 metro 50;
#X obj -10 210 tgl 15 0 empty empty empty 17 7 0 10 #fcfcfc #000000
#000000 1 1;
#X obj 10 150 loadbang;
#X msg -10 180 1;
#X obj 90 410 s~ volumen_1;
#X floatatom 421 184 5 0 1 0 - slider_1_amp slider_1_amp_num, f 5
;
#X floatatom 420 110 5 0 2000 0 - slider_1_ampm slider_1_ampm_num,
f 5;
#X obj 80 120 osc~;
#X obj 90 230 +~;
#X obj 90 280 osc~;
#X obj 90 180 *~;
#X obj 90 330 *~;
#X floatatom 420 147 5 0 0 0 - slider_1_fp slider_1_fp_num, f 5;
#X floatatom 420 73 5 0 0 0 - slider_1_fm slider_1_fm_num, f 5;
#X obj 307 184 hsl 103 15 0 1 0 0 slider_1_amp slider_1_amp_preset
empty -2 -8 0 10 #242424 #0000ff #ff0000 0 1;
#X obj 307 111 hsl 103 15 0 2000 0 0 slider_1_ampm slider_1_ampm_preset
empty -2 -8 0 10 #242424 #0000ff #ff0000 0 1;
#X obj 307 148 hsl 103 15 0 127 0 0 slider_1_fp slider_1_fp_preset
empty -2 -8 0 10 #242424 #0000ff #ff0000 0 1;
#X obj 307 73 hsl 103 15 0 127 0 0 slider_1_fm slider_1_fm_preset empty
-2 -8 0 10 #242424 #0000ff #ff0000 0 1;
#X obj 307 55 cnv 15 88 17 empty empty Frecuencia\ Moduladora 3 9 0
6 #000000 #ffffff 0;
#X obj 307 93 cnv 15 88 17 empty empty Amplitud\ Moduladora 3 9 0 6
#000000 #ffffff 0;
#X obj 307 130 cnv 15 88 17 empty empty Frecuencia\ Portadora 3 9 0
6 #000000 #ffffff 0;
#X obj 140 200 r slider_1_fp_num;
#X obj 307 167 cnv 15 88 17 empty empty Amplitud 3 9 0 6 #000000 #ffffff
0;
#X obj 170 140 r slider_1_ampm_num;
#X obj 80 60 r slider_1_fm_num;
#X obj 200 280 r slider_1_amp_num;
#X text 80 30 Frecuencia moduladora;
#X text 130 110 Amplitud moduladora;
#X text 200 250 Amplitud;
#X text 140 180 Frecuencia Portadora;
#X text 100 440 Envio Volumen;
#X text -20 410 Dibujo la envolvente, f 13;
#X connect 4 0 3 0;
#X connect 5 0 4 0;
#X connect 6 0 7 0;
#X connect 7 0 5 0;
#X connect 11 0 14 0;
#X connect 12 0 13 0;
#X connect 13 0 15 0;
#X connect 14 0 12 0;
#X connect 15 0 8 0;
#X connect 15 0 3 0;
#X connect 25 0 12 1;
#X connect 27 0 14 1;
#X connect 28 0 11 0;
#X connect 29 0 15 1;
#X coords 0 -1 1 1 264 153 2 301 50;
#X restore 317 13 pd modulo 1;
#X obj 581 13 cnv 15 266 151 empty empty empty 20 12 0 14 #e0e0e0 #404040
0;
#N canvas 0 0 1808 932 Presets 0;
#X obj 100 100 cnv 15 92 185 empty empty empty 20 12 0 14 #e0e0e0 #404040
0;
#X obj 107 110 cnv 15 80 22 empty empty Preset 14 9 0 14 #000000 #ffffff
0;
#X obj 152 140 vradio 20 0 0 7 presets empty empty 0 -8 0 10 #fcfcfc
#000000 #000000 6;
#X obj 122 141 cnv 15 21 19 empty empty 1 5 7 0 18 #000000 #ffffff
0;
#X obj 310 90 r presets;
#X obj 280 200 bng 15 250 50 0 empty empty empty 17 7 0 10 #fcfcfc
#000000 #000000;
#X obj 310 200 bng 15 250 50 0 empty empty empty 17 7 0 10 #fcfcfc
#000000 #000000;
#X obj 340 200 bng 15 250 50 0 empty empty empty 17 7 0 10 #fcfcfc
#000000 #000000;
#X obj 367 200 bng 15 250 50 0 empty empty empty 17 7 0 10 #fcfcfc
#000000 #000000;
#X obj 393 200 bng 15 250 50 0 empty empty empty 17 7 0 10 #fcfcfc
#000000 #000000;
#X obj 430 200 bng 15 250 50 0 empty empty empty 17 7 0 10 #fcfcfc
#000000 #000000;
#X msg 1100 490 32;
#X msg 550 450 32;
#X obj 1010 210 s slider_2_ampm_preset;
#X obj 190 530 s slider_2_amp_preset;
#X obj 690 530 s slider_2_fp_preset;
#X obj 870 210 s slider_1_ampm_preset;
#X obj 50 530 s slider_1_amp_preset;
#X obj 550 530 s slider_1_fp_preset;
#X msg 1170 490 36;
#X msg 1200 490 64;
#X msg 1240 490 101;
#X msg 1270 490 13;
#X msg 1310 490 16;
#X msg 1340 490 50;
#X msg 1380 490 60;
#X msg 1410 490 99;
#X msg 620 450 36;
#X msg 650 450 64;
#X msg 690 450 101;
#X msg 720 450 13;
#X msg 760 450 16;
#X msg 790 450 50;
#X msg 830 450 60;
#X msg 860 450 99;
#X msg 54 450 0.234;
#X msg 95 450 0.54;
#X msg 135 450 0.83;
#X msg 170 450 0.64;
#X msg 210 450 0.73;
#X msg 245 450 0.13;
#X text 100 60 Panel de Presets;
#X text 50 560 Presets Amplitud;
#X msg 326 450 0.5, f 4;
#X msg 290 450 0.68;
#X msg 370 450 0.3, f 4;
#X msg 410 450 0.89;
#X text 560 560 Presets Frecuencia Portadora;
#X msg 450 450 0.13;
#X msg 490 450 0.26;
#X msg 1450 490 60;
#X msg 1480 490 99;
#X msg 580 450 81;
#X msg 900 450 71;
#X msg 930 450 22;
#X text 1400 420 Presets Frecuencia Moduladora;
#X text 870 130 Presets Amplitud Moduladora;
#X msg 870 170 322;
#X msg 900 170 720;
#X msg 940 170 360;
#X msg 970 170 642;
#X msg 1010 170 1301;
#X msg 1050 170 1823;
#X msg 1094 170 1623;
#X msg 1130 170 500;
#X msg 1160 170 660;
#X msg 1194 170 234;
#X msg 1234 170 1060;
#X msg 1264 170 990;
#X msg 870 50 322;
#X msg 900 50 720;
#X msg 940 50 360;
#X msg 970 50 642;
#X msg 1010 50 1301;
#X msg 1050 50 1823;
#X msg 1094 50 1623;
#X msg 1130 50 500;
#X msg 1160 50 660;
#X msg 1194 50 234;
#X msg 1234 50 1060;
#X msg 1264 50 990;
#X obj 870 90 s slider_3_ampm_preset;
#X obj 1010 90 s slider_4_ampm_preset;
#X msg 54 620 0.234;
#X msg 95 620 0.54;
#X msg 135 620 0.83;
#X msg 170 620 0.64;
#X msg 210 620 0.73;
#X msg 245 620 0.13;
#X msg 326 620 0.5, f 4;
#X msg 290 620 0.68;
#X msg 370 620 0.3, f 4;
#X msg 410 620 0.89;
#X msg 450 620 0.13;
#X msg 490 620 0.26;
#X obj 50 700 s slider_3_amp_preset;
#X obj 190 700 s slider_4_amp_preset;
#X msg 1110 370 32;
#X obj 1250 400 s slider_2_fm_preset;
#X obj 1110 400 s slider_1_fm_preset;
#X msg 1180 370 36;
#X msg 1210 370 64;
#X msg 1250 370 101;
#X msg 1280 370 13;
#X msg 1320 370 16;
#X msg 1350 370 50;
#X msg 1390 370 60;
#X msg 1420 370 99;
#X msg 1460 370 60;
#X msg 1490 370 99;
#X msg 1140 370 82;
#X msg 1130 490 64;
#X obj 1100 520 s slider_3_fm_preset;
#X obj 1240 520 s slider_4_fm_preset;
#X msg 560 610 32;
#X obj 700 690 s slider_2_fp_preset;
#X obj 560 690 s slider_1_fp_preset;
#X msg 630 610 36;
#X msg 660 610 64;
#X msg 700 610 101;
#X msg 730 610 13;
#X msg 770 610 16;
#X msg 800 610 50;
#X msg 840 610 60;
#X msg 870 610 99;
#X msg 590 610 81;
#X msg 910 610 71;
#X msg 940 610 22;
#X obj 109 260 cnv 15 34 20 empty empty Reset 2 9 0 10 #000000 #ffffff
0;
#X obj 122 161 cnv 15 21 19 empty empty 2 5 7 0 18 #000000 #ffffff
0;
#X obj 122 181 cnv 15 21 19 empty empty 3 5 7 0 18 #000000 #ffffff
0;
#X obj 122 201 cnv 15 21 19 empty empty 4 5 7 0 18 #000000 #ffffff
0;
#X obj 122 221 cnv 15 21 19 empty empty 5 5 7 0 18 #000000 #ffffff
0;
#X obj 122 241 cnv 15 21 19 empty empty 6 5 7 0 18 #000000 #ffffff
0;
#X obj 310 150 route 0 1 2 3 4 5 6;
#X obj 460 200 bng 15 250 50 0 empty empty empty 17 7 0 10 #fcfcfc
#000000 #000000;
#X msg 490 400 0;
#X connect 4 0 134 0;
#X connect 5 0 35 0;
#X connect 5 0 36 0;
#X connect 5 0 12 0;
#X connect 5 0 52 0;
#X connect 5 0 11 0;
#X connect 5 0 111 0;
#X connect 5 0 57 0;
#X connect 5 0 58 0;
#X connect 5 0 69 0;
#X connect 5 0 70 0;
#X connect 5 0 83 0;
#X connect 5 0 84 0;
#X connect 5 0 97 0;
#X connect 5 0 110 0;
#X connect 5 0 114 0;
#X connect 5 0 125 0;
#X connect 6 0 37 0;
#X connect 6 0 38 0;
#X connect 6 0 27 0;
#X connect 6 0 28 0;
#X connect 6 0 19 0;
#X connect 6 0 20 0;
#X connect 6 0 59 0;
#X connect 6 0 60 0;
#X connect 6 0 71 0;
#X connect 6 0 72 0;
#X connect 6 0 85 0;
#X connect 6 0 86 0;
#X connect 6 0 100 0;
#X connect 6 0 101 0;
#X connect 6 0 117 0;
#X connect 6 0 118 0;
#X connect 7 0 39 0;
#X connect 7 0 40 0;
#X connect 7 0 29 0;
#X connect 7 0 30 0;
#X connect 7 0 21 0;
#X connect 7 0 22 0;
#X connect 7 0 61 0;
#X connect 7 0 62 0;
#X connect 7 0 73 0;
#X connect 7 0 74 0;
#X connect 7 0 87 0;
#X connect 7 0 88 0;
#X connect 7 0 102 0;
#X connect 7 0 103 0;
#X connect 7 0 119 0;
#X connect 7 0 120 0;
#X connect 8 0 44 0;
#X connect 8 0 43 0;
#X connect 8 0 31 0;
#X connect 8 0 32 0;
#X connect 8 0 23 0;
#X connect 8 0 24 0;
#X connect 8 0 63 0;
#X connect 8 0 64 0;
#X connect 8 0 75 0;
#X connect 8 0 76 0;
#X connect 8 0 90 0;
#X connect 8 0 89 0;
#X connect 8 0 104 0;
#X connect 8 0 105 0;
#X connect 8 0 121 0;
#X connect 8 0 122 0;
#X connect 9 0 45 0;
#X connect 9 0 46 0;
#X connect 9 0 33 0;
#X connect 9 0 34 0;
#X connect 9 0 25 0;
#X connect 9 0 26 0;
#X connect 9 0 65 0;
#X connect 9 0 66 0;
#X connect 9 0 77 0;
#X connect 9 0 78 0;
#X connect 9 0 91 0;
#X connect 9 0 92 0;
#X connect 9 0 106 0;
#X connect 9 0 107 0;
#X connect 9 0 123 0;
#X connect 9 0 124 0;
#X connect 10 0 48 0;
#X connect 10 0 49 0;
#X connect 10 0 53 0;
#X connect 10 0 54 0;
#X connect 10 0 50 0;
#X connect 10 0 51 0;
#X connect 10 0 67 0;
#X connect 10 0 68 0;
#X connect 10 0 77 0;
#X connect 10 0 78 0;
#X connect 10 0 93 0;
#X connect 10 0 94 0;
#X connect 10 0 108 0;
#X connect 10 0 109 0;
#X connect 10 0 126 0;
#X connect 10 0 127 0;
#X connect 11 0 112 0;
#X connect 12 0 18 0;
#X connect 19 0 112 0;
#X connect 20 0 113 0;
#X connect 21 0 112 0;
#X connect 22 0 113 0;
#X connect 23 0 112 0;
#X connect 24 0 113 0;
#X connect 25 0 112 0;
#X connect 26 0 113 0;
#X connect 27 0 18 0;
#X connect 28 0 15 0;
#X connect 29 0 18 0;
#X connect 30 0 15 0;
#X connect 31 0 18 0;
#X connect 32 0 15 0;
#X connect 33 0 18 0;
#X connect 34 0 15 0;
#X connect 35 0 17 0;
#X connect 36 0 14 0;
#X connect 37 0 17 0;
#X connect 38 0 14 0;
#X connect 39 0 17 0;
#X connect 40 0 14 0;
#X connect 43 0 14 0;
#X connect 44 0 17 0;
#X connect 45 0 17 0;
#X connect 46 0 14 0;
#X connect 48 0 17 0;
#X connect 49 0 14 0;
#X connect 50 0 112 0;
#X connect 51 0 113 0;
#X connect 52 0 15 0;
#X connect 53 0 18 0;
#X connect 54 0 15 0;
#X connect 57 0 16 0;
#X connect 58 0 13 0;
#X connect 59 0 16 0;
#X connect 60 0 13 0;
#X connect 61 0 16 0;
#X connect 62 0 13 0;
#X connect 63 0 16 0;
#X connect 64 0 13 0;
#X connect 65 0 16 0;
#X connect 66 0 13 0;
#X connect 67 0 16 0;
#X connect 68 0 13 0;
#X connect 69 0 81 0;
#X connect 70 0 82 0;
#X connect 71 0 81 0;
#X connect 72 0 82 0;
#X connect 73 0 81 0;
#X connect 74 0 82 0;
#X connect 75 0 81 0;
#X connect 76 0 82 0;
#X connect 77 0 81 0;
#X connect 78 0 82 0;
#X connect 79 0 81 0;
#X connect 80 0 82 0;
#X connect 83 0 95 0;
#X connect 84 0 96 0;
#X connect 85 0 95 0;
#X connect 86 0 96 0;
#X connect 87 0 95 0;
#X connect 88 0 96 0;
#X connect 89 0 96 0;
#X connect 90 0 95 0;
#X connect 91 0 95 0;
#X connect 92 0 96 0;
#X connect 93 0 95 0;
#X connect 94 0 96 0;
#X connect 97 0 99 0;
#X connect 100 0 99 0;
#X connect 101 0 98 0;
#X connect 102 0 99 0;
#X connect 103 0 98 0;
#X connect 104 0 99 0;
#X connect 105 0 98 0;
#X connect 106 0 99 0;
#X connect 107 0 98 0;
#X connect 108 0 99 0;
#X connect 109 0 98 0;
#X connect 110 0 98 0;
#X connect 111 0 113 0;
#X connect 114 0 116 0;
#X connect 117 0 116 0;
#X connect 118 0 115 0;
#X connect 119 0 116 0;
#X connect 120 0 115 0;
#X connect 121 0 116 0;
#X connect 122 0 115 0;
#X connect 123 0 116 0;
#X connect 124 0 115 0;
#X connect 125 0 115 0;
#X connect 126 0 116 0;
#X connect 127 0 115 0;
#X connect 134 0 5 0;
#X connect 134 1 6 0;
#X connect 134 2 7 0;
#X connect 134 3 8 0;
#X connect 134 4 9 0;
#X connect 134 5 10 0;
#X connect 134 6 135 0;
#X connect 135 0 136 0;
#X connect 136 0 17 0;
#X connect 136 0 14 0;
#X connect 136 0 18 0;
#X connect 136 0 15 0;
#X connect 136 0 95 0;
#X connect 136 0 96 0;
#X connect 136 0 116 0;
#X connect 136 0 115 0;
#X connect 136 0 81 0;
#X connect 136 0 82 0;
#X connect 136 0 16 0;
#X connect 136 0 13 0;
#X connect 136 0 99 0;
#X connect 136 0 98 0;
#X connect 136 0 112 0;
#X connect 136 0 113 0;
#X coords 0 -1 1 1 92 185 2 100 100;
#X restore 11 168 pd Presets;
#N canvas 619 268 784 546 modulo 0;
#X obj 459 89 cnv 15 100 110 empty empty empty 20 12 0 14 #575757 #404040
0;
#N canvas 0 0 450 300 (subpatch) 0;
#X array osc2 100 float 1 black #ff0000;
#A 0 0 0 0 0 0 0 0 0 0 0 0 0 0 0 0 0 0 0 0 0 0 0 0 0 0 0 0 0 0 0 0
0 0 0 0 0 0 0 0 0 0 0 0 0 0 0 0 0 0 0 0 0 0 0 0 0 0 0 0 0 0 0 0 0 0
0 0 0 0 0 0 0 0 0 0 0 0 0 0 0 0 0 0 0 0 0 0 0 0 0 0 0 0 0 0 0 0 0 0
0;
#X coords 0 1 99 -1 100 110 1;
#X restore 459 89 graph;
#X obj 459 57 cnv 15 98 22 empty empty Oscilador\ 2 3 9 0 14 #000000
#ffffff 0;
#X obj 10 230 metro 50;
#X obj -10 210 tgl 15 0 empty empty empty 17 7 0 10 #fcfcfc #000000
#000000 1 1;
#X obj 10 150 loadbang;
#X msg -10 180 1;
#X floatatom 421 184 5 0 1 0 - slider_2_amp slider_2_amp_num, f 5
;
#X floatatom 420 110 5 0 2000 0 - slider_2_ampm slider_2_ampm_num,
f 5;
#X obj 80 120 osc~;
#X obj 90 230 +~;
#X obj 90 280 osc~;
#X obj 90 180 *~;
#X obj 90 330 *~;
#X floatatom 420 147 5 0 0 0 - slider_2_fp slider_2_fp_num, f 5;
#X floatatom 420 73 5 0 0 0 - slider_2_fm slider_2_fm_num, f 5;
#X obj 307 184 hsl 103 15 0 1 0 0 slider_2_amp slider_2_amp_preset
empty -2 -8 0 10 #242424 #0000ff #ff0000 0 1;
#X obj 307 111 hsl 103 15 0 2000 0 0 slider_2_ampm slider_2_ampm_preset
empty -2 -8 0 10 #242424 #0000ff #ff0000 0 1;
#X obj 307 148 hsl 103 15 0 127 0 0 slider_2_fp slider_2_fp_preset
empty -2 -8 0 10 #242424 #0000ff #ff0000 0 1;
#X obj 307 73 hsl 103 15 0 127 0 0 slider_2_fm slider_2_fm_preset empty
-2 -8 0 10 #242424 #0000ff #ff0000 0 1;
#X obj 307 55 cnv 15 88 17 empty empty Frecuencia\ Moduladora 3 9 0
6 #000000 #ffffff 0;
#X obj 307 93 cnv 15 88 17 empty empty Amplitud\ Moduladora 3 9 0 6
#000000 #ffffff 0;
#X obj 307 130 cnv 15 88 17 empty empty Frecuencia\ Portadora 3 9 0
6 #000000 #ffffff 0;
#X obj 307 167 cnv 15 88 17 empty empty Amplitud 3 9 0 6 #000000 #ffffff
0;
#X obj 90 410 s~ volumen_2;
#X obj -20 390 tabwrite~ osc2;
#X obj 140 200 r slider_2_fp_num;
#X obj 170 140 r slider_2_ampm_num;
#X obj 200 280 r slider_2_amp_num;
#X obj 80 60 r slider_2_fm_num;
#X text 80 40 Frecuencia moduladora;
#X text 170 120 Amplitud moduladora;
#X text 150 180 Frecuencia Portadora;
#X text 85 440 Envio Volumen;
#X text -15 410 Dibujo la envolvente, f 13;
#X text 200 260 Amplitud;
#X connect 3 0 25 0;
#X connect 4 0 3 0;
#X connect 5 0 6 0;
#X connect 6 0 4 0;
#X connect 9 0 12 0;
#X connect 10 0 11 0;
#X connect 11 0 13 0;
#X connect 12 0 10 0;
#X connect 13 0 24 0;
#X connect 13 0 25 0;
#X connect 26 0 10 1;
#X connect 27 0 12 1;
#X connect 28 0 13 1;
#X connect 29 0 9 0;
#X coords 0 -1 1 1 267 153 2 301 50;
#X restore 581 13 pd modulo 1;
#N canvas 0 0 1807 964 Sintesis 0;
#X obj 100 100 cnv 15 265 185 empty empty empty 20 12 0 14 #e0e0e0
#404040 0;
#X floatatom 406 408 5 0 15 0 - frec_mod -, f 5;
#X obj 404 588 +~;
#X floatatom 431 554 5 0 3000 0 - frec_port -, f 5;
#X obj 406 448 osc~;
#X text 473 405 Frecuencia de la moduladora;
#X text 496 554 Frecuencia de la portadora;
#X obj 133 452 line~;
#X obj 119 246 bng 25 250 50 0 iniciar_ad empty empty 17 7 0 10 #000000
#ff0000 #0000ff;
#X obj 283 352 line~;
#X msg 922 363 duration \$1;
#X floatatom 283 265 7 0 0 0 - dur -, f 7;
#X obj 405 514 *~;
#X obj 402 697 *~;
#X obj 132 526 s~ amp_mod;
#X obj 283 388 s~ amp_port;
#X obj 432 483 r~ amp_mod;
#X obj 430 666 r~ amp_port;
#X obj 403 631 osc~;
#X obj 133 488 *~ 2000;
#X obj 153 52 r iniciar_ad;
#X obj 110 139 cnv 15 88 17 empty empty Amplitud\ Moduladora 3 9 0
6 #000000 #ffffff 0;
#X obj 250 139 cnv 15 88 17 empty empty Amplitud\ Portadora 3 9 0 6
#000000 #ffffff 0;
#X obj 148 250 cnv 15 50 17 empty empty Reproducir 6 8 0 6 #000000
#ffffff 0;
#X obj 259 244 cnv 15 88 17 empty empty Tiempo\ en\ ms 19 8 0 6 #000000
#ffffff 0;
#X obj 433 30 loadbang;
#X msg 433 62 \; frec_mod 207.65 \; frec_port 392 \; dur 5000;
#X obj 180 110 cnv 15 98 22 empty empty FM 36 10 0 14 #000000 #ffffff
0;
#X obj 110 157 envgen 100 70 1 0  ;
#X obj 249 156 envgen 100 70 1 0  ;
#X obj 403 742 s~ volumen_5;
#X connect 1 0 4 0;
#X connect 2 0 18 0;
#X connect 3 0 2 1;
#X connect 4 0 12 0;
#X connect 7 0 19 0;
#X connect 9 0 15 0;
#X connect 10 0 28 0;
#X connect 10 0 29 0;
#X connect 11 0 10 0;
#X connect 12 0 2 0;
#X connect 13 0 30 0;
#X connect 16 0 12 1;
#X connect 17 0 13 1;
#X connect 18 0 13 0;
#X connect 19 0 14 0;
#X connect 20 0 28 0;
#X connect 20 0 29 0;
#X connect 25 0 26 0;
#X connect 28 0 7 0;
#X connect 29 0 9 0;
#X coords 0 -1 1 1 267 186 2 99 100;
#X scroll 1;
#X restore 581 168 pd Sintesis aditiva;
#X obj 105 168 cnv 15 474 185 empty empty empty 20 12 0 14 #e0e0e0
#404040 0;
#X obj 582 356 cnv 15 265 151 empty empty empty 20 12 0 14 #e0e0e0
#404040 0;
#N canvas 0 0 1824 973 modulo 0;
#X obj 459 89 cnv 15 100 110 empty empty empty 20 12 0 14 #575757 #404040
0;
#N canvas 0 0 450 300 (subpatch) 0;
#X array osc4 100 float 1 black #ff0000;
#A 0 0 0 0 0 0 0 0 0 0 0 0 0 0 0 0 0 0 0 0 0 0 0 0 0 0 0 0 0 0 0 0
0 0 0 0 0 0 0 0 0 0 0 0 0 0 0 0 0 0 0 0 0 0 0 0 0 0 0 0 0 0 0 0 0 0
0 0 0 0 0 0 0 0 0 0 0 0 0 0 0 0 0 0 0 0 0 0 0 0 0 0 0 0 0 0 0 0 0 0
0;
#X coords 0 1 99 -1 100 110 1;
#X restore 459 89 graph;
#X obj 459 57 cnv 15 98 22 empty empty Oscilador\ 4 3 9 0 14 #000000
#ffffff 0;
#X obj 10 230 metro 50;
#X obj -10 210 tgl 15 0 empty empty empty 17 7 0 10 #fcfcfc #000000
#000000 1 1;
#X obj 10 150 loadbang;
#X msg -10 180 1;
#X floatatom 421 184 5 0 1 0 - slider_4_amp slider_4_amp_num, f 5
;
#X floatatom 420 110 5 0 2000 0 - slider_4_ampm slider_4_ampm_num,
f 5;
#X obj 90 230 +~;
#X obj 90 180 *~;
#X obj 100 460 *~;
#X floatatom 420 147 5 0 0 0 - slider_4_fp slider_4_fp_num, f 5;
#X floatatom 420 73 5 0 0 0 - slider_4_fm slider_4_fm_num, f 5;
#X obj 307 184 hsl 103 15 0 1 0 0 slider_4_amp slider_4_amp_preset
empty -2 -8 0 10 #242424 #0000ff #ff0000 0 1;
#X obj 307 111 hsl 103 15 0 2000 0 0 slider_4_ampm slider_4_ampm_preset
empty -2 -8 0 10 #242424 #0000ff #ff0000 0 1;
#X obj 307 148 hsl 103 15 0 127 0 0 slider_4_fp slider_4_fp_preset
empty -2 -8 0 10 #242424 #0000ff #ff0000 0 1;
#X obj 307 73 hsl 103 15 0 127 0 0 slider_4_fm slider_4_fm_preset empty
-2 -8 0 10 #242424 #0000ff #ff0000 0 1;
#X obj 307 55 cnv 15 88 17 empty empty Frecuencia\ Moduladora 3 9 0
6 #000000 #ffffff 0;
#X obj 307 93 cnv 15 88 17 empty empty Amplitud\ Moduladora 3 9 0 6
#000000 #ffffff 0;
#X obj 307 130 cnv 15 88 17 empty empty Frecuencia\ Portadora 3 9 0
6 #000000 #ffffff 0;
#X obj 307 167 cnv 15 88 17 empty empty Amplitud 3 9 0 6 #000000 #ffffff
0;
#X text 80 30 Frecuencia moduladora;
#X text 120 90 Amplitud moduladora;
#X text 200 250 Amplitud;
#X text 140 180 Frecuencia Portadora;
#X text 110 550 Envio Volumen;
#X text -10 520 Dibujo la envolvente, f 13;
#X obj 200 280 r slider_4_amp_num;
#X obj 140 200 r slider_4_fp_num;
#X obj 80 60 r slider_4_fm_num;
#X obj 170 140 r slider_4_ampm_num;
#X obj 100 520 s~ volumen_4;
#X obj -10 500 tabwrite~ osc4;
#X obj 90 280 phasor~;
#X obj 90 320 *~ 2;
#X obj 90 360 *~ -1;
#X obj 90 390 +~ 1;
#X obj 80 120 phasor~ 440 0;
#X connect 3 0 33 0;
#X connect 4 0 3 0;
#X connect 5 0 6 0;
#X connect 6 0 4 0;
#X connect 9 0 34 0;
#X connect 10 0 9 0;
#X connect 11 0 32 0;
#X connect 11 0 33 0;
#X connect 28 0 11 1;
#X connect 29 0 9 1;
#X connect 30 0 38 0;
#X connect 31 0 10 1;
#X connect 34 0 35 0;
#X connect 35 0 36 0;
#X connect 36 0 37 0;
#X connect 37 0 11 0;
#X connect 38 0 10 0;
#X coords 0 -1 1 1 266 152 2 301 50;
#X restore 582 356 pd modulo 1;
#X obj 314 356 cnv 15 265 151 empty empty empty 20 12 0 14 #e0e0e0
#404040 0;
#N canvas 40 6 1824 973 modulo 0;
#X obj 459 89 cnv 15 100 110 empty empty empty 20 12 0 14 #575757 #404040
0;
#N canvas 0 0 450 300 (subpatch) 0;
#X array osc3 100 float 1 black #ff0000;
#A 0 0 0 0 0 0 0 0 0 0 0 0 0 0 0 0 0 0 0 0 0 0 0 0 0 0 0 0 0 0 0 0
0 0 0 0 0 0 0 0 0 0 0 0 0 0 0 0 0 0 0 0 0 0 0 0 0 0 0 0 0 0 0 0 0 0
0 0 0 0 0 0 0 0 0 0 0 0 0 0 0 0 0 0 0 0 0 0 0 0 0 0 0 0 0 0 0 0 0 0
0;
#X coords 0 1 99 -1 100 110 1;
#X restore 459 89 graph;
#X obj 459 57 cnv 15 98 22 empty empty Oscilador\ 3 3 9 0 14 #000000
#ffffff 0;
#X obj -10 260 metro 50;
#X obj -10 210 tgl 15 0 empty empty empty 17 7 0 10 #fcfcfc #000000
#000000 1 1;
#X obj -10 150 loadbang;
#X msg -10 180 1;
#X floatatom 421 184 5 0 1 0 - slider_3_amp slider_3_amp_num, f 5
;
#X floatatom 420 110 5 0 2000 0 - slider_3_ampm slider_3_ampm_num,
f 5;
#X obj 90 230 +~;
#X obj 90 180 *~;
#X obj 90 460 *~;
#X floatatom 420 147 5 0 0 0 - slider_3_fp slider_3_fp_num, f 5;
#X floatatom 420 73 5 0 0 0 - slider_3_fm slider_3_fm_num, f 5;
#X obj 307 184 hsl 103 15 0 1 0 0 slider_3_amp slider_3_amp_preset
empty -2 -8 0 10 #242424 #0000ff #ff0000 0 1;
#X obj 307 111 hsl 103 15 0 2000 0 0 slider_3_ampm slider_3_ampm_preset
empty -2 -8 0 10 #242424 #0000ff #ff0000 0 1;
#X obj 307 148 hsl 103 15 0 127 0 0 slider_3_fp slider_3_fp_preset
empty -2 -8 0 10 #242424 #0000ff #ff0000 0 1;
#X obj 307 73 hsl 103 15 0 127 0 0 slider_3_fm slider_3_fm_preset empty
-2 -8 0 10 #242424 #0000ff #ff0000 0 1;
#X obj 307 55 cnv 15 88 17 empty empty Frecuencia\ Moduladora 3 9 0
6 #000000 #ffffff 0;
#X obj 307 93 cnv 15 88 17 empty empty Amplitud\ Moduladora 3 9 0 6
#000000 #ffffff 0;
#X obj 307 130 cnv 15 88 17 empty empty Frecuencia\ Portadora 3 9 0
6 #000000 #ffffff 0;
#X obj 307 167 cnv 15 88 17 empty empty Amplitud 3 9 0 6 #000000 #ffffff
0;
#X text 80 30 Frecuencia moduladora;
#X text 120 90 Amplitud moduladora;
#X text 200 410 Amplitud;
#X text 140 180 Frecuencia Portadora;
#X text 100 550 Envio Volumen;
#X text -10 520 Dibujo la envolvente, f 13;
#X obj 80 120 phasor~ 440 0;
#X obj 200 440 r slider_3_amp_num;
#X obj 140 200 r slider_3_fp_num;
#X obj 170 140 r slider_3_ampm_num;
#X obj 90 520 s~ volumen_3;
#X obj 90 336 expr~ $v1 < $v2;
#X msg 192 312 0.5;
#X obj 191 336 r sq_osc1_s;
#X obj 192 286 loadbang;
#X obj 90 375 *~ 2;
#X obj 90 400 -~ 1;
#X obj 90 280 phasor~ 440 0;
#X obj -10 500 tabwrite~ osc3;
#X obj 80 60 r slider_3_fm_num;
#X connect 3 0 40 0;
#X connect 4 0 3 0;
#X connect 5 0 6 0;
#X connect 6 0 4 0;
#X connect 9 0 39 0;
#X connect 10 0 9 0;
#X connect 11 0 32 0;
#X connect 11 0 40 0;
#X connect 28 0 10 0;
#X connect 29 0 11 1;
#X connect 30 0 9 1;
#X connect 31 0 10 1;
#X connect 33 0 37 0;
#X connect 34 0 33 1;
#X connect 35 0 33 1;
#X connect 36 0 34 0;
#X connect 37 0 38 0;
#X connect 38 0 11 0;
#X connect 39 0 33 0;
#X connect 41 0 28 0;
#X coords 0 -1 1 1 266 152 2 301 50;
#X restore 314 355 pd modulo 1;
#N canvas 0 0 1824 973 aditiva 0;
#X floatatom 184 262 6 0 1500 0 - slider_add slider_add_preset, f
6;
#X obj 110 262 hsl 64 15 0 1500 0 0 slider_add empty empty -2 -8 0
10 #242424 #0000ff #ff0000 0 1;
#X obj 110 241 cnv 15 88 17 empty empty Velocidad\ Aleatorio 3 8 0
7 #000000 #ffffff 0;
#X obj 280 320 r slider_add;
#N canvas 0 0 450 300 (subpatch) 0;
#X array osc_add_o 515 float 4 black black;
#X coords 0 1 514 -1 250 150 1;
#X restore 280 420 graph;
#X obj 258 255 hradio 27 0 0 8 s_add1_arm rand_add1 empty 5 -11 0 18
#fcfcfc #000000 #000000 0;
#X msg 1350 340 440;
#X msg 1118 398 0;
#X msg 1080 340 261;
#X msg 1130 340 293;
#X msg 1180 340 329;
#X msg 1240 340 349;
#X msg 1290 340 391;
#X msg 1410 340 493;
#X msg 1500 340 523, f 4;
#X obj 976 394 loadbang;
#N canvas 0 0 450 300 (subpatch) 0;
#X array osc_add 100 float 5 black black;
#A 0 0.3624 0.342658 0.321852 0.300048 0.277313 0.253717 0.229334 0.20424
0.178512 0.15223 0.125476 0.098333 0.0708846 0.0432162 0.0154137 -0.0124366
-0.0402483 -0.0679351 -0.0954111 -0.122591 -0.149391 -0.175727 -0.201518
-0.226684 -0.251146 -0.274829 -0.29766 -0.319567 -0.340483 -0.360342
-0.379083 -0.396648 -0.412983 -0.428036 -0.441761 -0.454115 -0.465061
-0.474564 -0.482594 -0.489127 -0.494142 -0.497625 -0.499563 -0.499952
-0.498789 -0.496079 -0.49183 -0.486054 -0.478771 -0.470002 -0.459776
-0.448122 -0.435078 -0.420685 -0.404986 -0.388031 -0.369872 -0.350565
-0.33017 -0.308752 -0.286375 -0.26311 -0.239028 -0.214205 -0.188717
-0.162644 -0.136066 -0.109066 -0.0817277 -0.0541358 -0.0263759 0.00146856
0.0293058 0.057052 0.0846213 0.111928 0.138887 0.165416 0.191431 0.216853
0.241601 0.2656 0.288775 0.311054 0.332368 0.352651 0.37184 0.389875
0.4067 0.422264 0.436517 0.449416 0.460921 0.470995 0.479609 0.486734
0.492349 0.496437 0.498985 0.499984;
#X coords 0 1 99 -1 284 115 1;
#X restore 229 112 graph;
#X obj 140 140 tgl 23 0 onoff_add1_osc on_add1_osc empty 0 -8 0 10
#fcfcfc #000000 #000000 0 1;
#X floatatom 730 362 5 0 0 0 - - -, f 5;
#X obj 830 470 metro 100;
#X obj 1050 380 sel 0 1;
#X msg 1095 243 1;
#X obj 1164 228 bng 15 250 50 0 empty empty empty 17 7 0 10 #fcfcfc
#000000 #000000;
#X obj 1194 418 *~ 0.5;
#X obj 121 389 random 8;
#X obj 1192 269 select 0 1 2 3 4 5 6 7;
#X obj 140 200 tgl 23 0 empty extra_add_1 empty 17 7 0 10 #fcfcfc #000000
#000000 0 1;
#X obj 120 360 metro 500;
#X msg 1258 411 0.5;
#X obj 1203 495 *~;
#X obj 1240 471 / 1.5;
#X obj 1270 440 r vol_add1_osc;
#X obj 122 415 s rand_add1;
#X obj 1280 130 r s_add1_arm;
#X obj 950 240 s on_add1_osc;
#X obj 760 340 r onoff_add1_osc;
#X obj 110 176 cnv 15 88 17 empty empty Aleatorio 13 7 0 12 #000000
#ffffff 0;
#X obj 110 113 cnv 15 88 17 empty empty Encendido/Apagado 3 7 0 8 #000000
#ffffff 0;
#X obj 1195 535 s~ volumen_add;
#X obj 527 139 vsl 35 112 0 1 0 0 vol_add1_osc empty empty 0 -9 0 10
#000000 #0000ff #ffffff 0 1;
#X obj 523 109 cnv 15 45 17 empty empty Volumen 5 7 0 8 #000000 #ffffff
0;
#X obj 1072 465 tabwrite~ osc_add;
#X obj 1190 390 tabosc4~ osc_add_o;
#X obj 259 229 cnv 15 25 24 empty empty C 7 9 0 18 #000000 #ffffff
0;
#X obj 286 229 cnv 15 25 24 empty empty D 7 9 0 18 #000000 #ffffff
0;
#X obj 313 229 cnv 15 25 24 empty empty E 7 9 0 18 #000000 #ffffff
0;
#X obj 340 229 cnv 15 25 24 empty empty F 7 9 0 18 #000000 #ffffff
0;
#X obj 367 229 cnv 15 25 24 empty empty G 7 9 0 18 #000000 #ffffff
0;
#X obj 394 229 cnv 15 25 24 empty empty A 7 9 0 18 #000000 #ffffff
0;
#X obj 421 229 cnv 15 25 24 empty empty B 7 9 0 18 #000000 #ffffff
0;
#X obj 448 229 cnv 15 25 24 empty empty C 7 9 0 18 #000000 #ffffff
0;
#X msg 980 570 \; osc_add_o sinesum 512 1 \;, f 65;
#X connect 3 0 27 1;
#X connect 6 0 42 0;
#X connect 7 0 42 0;
#X connect 8 0 42 0;
#X connect 9 0 42 0;
#X connect 10 0 42 0;
#X connect 11 0 42 0;
#X connect 12 0 42 0;
#X connect 13 0 42 0;
#X connect 14 0 42 0;
#X connect 15 0 51 0;
#X connect 15 0 7 0;
#X connect 19 0 41 0;
#X connect 20 0 7 0;
#X connect 21 0 34 0;
#X connect 22 0 21 0;
#X connect 23 0 29 0;
#X connect 23 0 41 0;
#X connect 24 0 32 0;
#X connect 25 0 8 0;
#X connect 25 1 9 0;
#X connect 25 2 10 0;
#X connect 25 3 11 0;
#X connect 25 4 12 0;
#X connect 25 5 6 0;
#X connect 25 6 13 0;
#X connect 25 7 14 0;
#X connect 26 0 27 0;
#X connect 27 0 24 0;
#X connect 28 0 23 1;
#X connect 29 0 38 0;
#X connect 30 0 29 1;
#X connect 31 0 30 0;
#X connect 33 0 22 0;
#X connect 33 0 25 0;
#X connect 35 0 18 0;
#X connect 35 0 19 0;
#X connect 35 0 20 0;
#X connect 42 0 23 0;
#X coords 0 -1 1 1 476 187 2 100 100;
#X scroll 1;
#X restore 105 167 pd aditiva;
#N canvas 0 0 1807 932 Sintesis 0;
#X obj 100 100 cnv 15 301 150 empty empty empty 20 12 0 14 #e0e0e0
#404040 0;
#X floatatom 406 408 5 0 15 0 - frec_mod -, f 5;
#X obj 404 588 +~;
#X floatatom 431 554 5 0 3000 0 - frec_port -, f 5;
#X obj 406 448 osc~;
#X text 473 405 Frecuencia de la moduladora;
#X text 496 554 Frecuencia de la portadora;
#X obj 133 452 line~;
#X obj 352 200 bng 25 250 50 0 iniciar_ad2 empty empty 17 7 0 10 #000000
#ff0000 #0000ff;
#X obj 283 352 line~;
#X msg 922 363 duration \$1;
#X floatatom 330 130 7 0 0 0 - dur -, f 7;
#X obj 405 514 *~;
#X obj 402 697 *~;
#X obj 403 631 osc~;
#X obj 133 488 *~ 2000;
#X obj 110 139 cnv 15 88 17 empty empty Amplitud\ Moduladora 3 9 0
6 #000000 #ffffff 0;
#X obj 223 139 cnv 15 88 17 empty empty Amplitud\ Portadora 3 9 0 6
#000000 #ffffff 0;
#X obj 340 180 cnv 15 50 17 empty empty Reproducir 6 8 0 6 #000000
#ffffff 0;
#X obj 306 109 cnv 15 88 17 empty empty Tiempo\ en\ ms 19 8 0 6 #000000
#ffffff 0;
#X obj 444 30 loadbang;
#X obj 180 110 cnv 15 98 22 empty empty FM\ 2 36 10 0 14 #000000 #ffffff
0;
#X obj 110 157 envgen 100 70 1 0  ;
#X obj 222 156 envgen 100 70 1 0  ;
#X obj 150 50 r iniciar_ad2;
#X obj 400 740 s~ volumen_6;
#X obj 432 483 r~ amp_mod2;
#X obj 430 670 r~ amp_port2;
#X obj 132 526 s~ amp_mod2;
#X obj 283 388 s~ amp_port2;
#X msg 440 60 \; frec_mod2 440.65 \; frec_port2 392 \; dur2 5000;
#X connect 1 0 4 0;
#X connect 2 0 14 0;
#X connect 3 0 2 1;
#X connect 4 0 12 0;
#X connect 7 0 15 0;
#X connect 9 0 29 0;
#X connect 10 0 22 0;
#X connect 10 0 23 0;
#X connect 11 0 10 0;
#X connect 12 0 2 0;
#X connect 13 0 25 0;
#X connect 14 0 13 0;
#X connect 15 0 28 0;
#X connect 20 0 30 0;
#X connect 22 0 7 0;
#X connect 23 0 9 0;
#X connect 24 0 22 0;
#X connect 24 0 23 0;
#X connect 26 0 12 1;
#X connect 27 0 13 1;
#X coords 0 -1 1 1 303 150 2 99 100;
#X scroll 1;
#X restore 10 356 pd Sintesis aditiva;
